<?xml version="1.0" encoding="UTF-8"?><svg id="Layer_2" xmlns="http://www.w3.org/2000/svg" viewBox="0 0 523.37 233.21"><defs><style>.cls-1{fill:#231f20;}</style></defs><g><path class="cls-1" d="M275.93,103.45h44.64v10.86h-32.58v15.53h31.71v10.53h-31.71v15.75h32.58v10.86h-44.64v-63.53Zm165.93,64.73c13.68,0,21.4-6.52,21.4-15.53,0-6.41-4.56-11.19-14.12-13.25l-10.1-2.06c-5.86-1.09-7.71-2.17-7.71-4.34,0-2.82,2.82-4.56,8.04-4.56,5.65,0,9.77,1.52,10.97,6.73h11.84c-.65-9.77-7.71-16.29-22.05-16.29-12.38,0-21.07,5.1-21.07,14.99,0,6.84,4.78,11.29,15.1,13.47l11.29,2.61c4.45,.87,5.65,2.06,5.65,3.91,0,2.93-3.37,4.78-8.8,4.78-6.84,0-10.75-1.52-12.27-6.73h-11.95c1.74,9.77,9.01,16.29,23.78,16.29Zm-26.99-11.84h-8.91c-2.72,0-4.45-1.19-4.45-3.69v-21.94h13.36v-10.64h-13.36v-13.36h-11.95v13.36h-9.01v10.64h9.01v24.98c0,6.3,4.45,11.29,12.49,11.29h12.82v-10.64Zm-39.36-36.27v46.92h-11.84v-4.24c-4.13,3.48-9.34,5.43-14.99,5.43-14.01,0-24.98-10.97-24.98-24.65s10.97-24.65,24.98-24.65c5.65,0,10.86,1.95,14.99,5.43v-4.24h11.84Zm-11.62,23.46c0-8.04-6.3-14.34-14.23-14.34s-14.23,6.3-14.23,14.34,6.41,14.34,14.23,14.34,14.23-6.3,14.23-14.34Z"/><path class="cls-1" d="M93.6,159.54c8.8,0,15.61-6.81,15.61-16.88v-39.21h9.53v63.53h-9.44v-5.9c-4.27,4.45-10.16,6.99-16.79,6.99-13.61,0-24.05-9.89-24.05-24.87v-39.75h9.53v39.21c0,10.26,6.72,16.88,15.61,16.88m32.22,7.44h9.08v-5.81c4.18,4.27,10.07,6.9,16.52,6.9,13.61,0,24.32-10.8,24.32-24.14s-10.71-24.23-24.32-24.23c-6.44,0-12.25,2.63-16.43,6.9v-23.14h-9.17v63.53Zm24.96-6.99c-8.89,0-15.97-7.17-15.97-16.06s7.17-16.06,15.97-16.06,15.88,7.08,15.88,16.06-7.17,16.06-15.88,16.06m52.37-40.21c-13.52,0-23.78,10.98-23.78,24.05,0,13.8,10.71,24.14,24.6,24.14,8.44,0,15.34-3.72,19.97-9.89l-6.63-4.9c-3.45,4.63-7.99,6.81-13.34,6.81-7.81,0-14.07-5.63-15.34-13.16h37.66v-3c0-13.8-9.8-24.05-23.14-24.05m-14.34,19.79c1.63-7.08,7.35-11.8,14.16-11.8s12.52,4.72,14.07,11.8h-28.23m65.89-10.71v-8.53h-3.18c-5.08,0-8.8,2.36-11.07,6.08v-5.72h-9.08v46.29h9.17v-26.32c0-7.17,4.36-11.8,10.35-11.8h3.81Z"/></g><g><path class="cls-1" d="M183.49,82.32h-3.37l-1.61-4h-7.11l-1.61,4h-3.28l6.9-16.38h3.18l6.9,16.38Zm-6.08-6.74l-2.46-6.13-2.48,6.13h4.94Z"/><path class="cls-1" d="M182.09,65.94h3.49l5.08,12.64,5.08-12.64h3.35l-6.9,16.38h-3.18l-6.9-16.38Z"/><path class="cls-1" d="M214.67,82.32h-3.37l-1.61-4h-7.11l-1.61,4h-3.28l6.9-16.38h3.18l6.9,16.38Zm-6.08-6.74l-2.46-6.13-2.48,6.13h4.94Z"/><path class="cls-1" d="M218.53,82.32v-16.38h3.16v16.38h-3.16Z"/><path class="cls-1" d="M237.14,82.32h-10.32v-16.38h3.16v13.62h7.16v2.76Z"/><path class="cls-1" d="M257.54,82.32h-3.37l-1.61-4h-7.11l-1.61,4h-3.28l6.9-16.38h3.18l6.9,16.38Zm-6.08-6.74l-2.46-6.13-2.48,6.13h4.94Z"/><path class="cls-1" d="M261.4,65.94h6.46c.67,0,1.3,.11,1.9,.34,.59,.23,1.11,.53,1.54,.92,.44,.39,.78,.85,1.03,1.38s.37,1.1,.37,1.71c0,.67-.17,1.29-.5,1.86-.34,.57-.78,1.04-1.35,1.42,.87,.36,1.58,.9,2.12,1.62,.54,.72,.81,1.54,.81,2.48,0,.66-.13,1.26-.39,1.83-.26,.56-.61,1.05-1.06,1.47-.45,.42-.98,.75-1.58,1-.6,.24-1.25,.36-1.95,.36h-7.4v-16.38Zm3.16,2.65v4.03h3c.59,0,1.07-.2,1.43-.6,.36-.4,.54-.87,.54-1.42,0-.58-.18-1.06-.54-1.44-.36-.38-.83-.57-1.43-.57h-3Zm3.7,11.09c.7,0,1.26-.21,1.69-.63,.42-.42,.63-.96,.63-1.62s-.21-1.18-.63-1.61c-.42-.44-.98-.66-1.69-.66h-3.7v4.52h3.7Z"/><path class="cls-1" d="M288.79,82.32h-10.32v-16.38h3.16v13.62h7.16v2.76Z"/><path class="cls-1" d="M293.49,65.94h10.32v2.76h-7.16v4.05h6.93v2.69h-6.93v4.12h7.16v2.76h-10.32v-16.38Z"/><path class="cls-1" d="M316,74.13c0-1.19,.22-2.29,.67-3.32,.44-1.03,1.06-1.93,1.85-2.69,.79-.76,1.71-1.37,2.77-1.81s2.21-.67,3.44-.67,2.36,.22,3.42,.67c1.06,.44,1.99,1.05,2.77,1.81,.79,.76,1.4,1.66,1.85,2.69,.44,1.03,.67,2.14,.67,3.32s-.22,2.29-.67,3.32c-.44,1.03-1.06,1.93-1.85,2.69-.79,.76-1.71,1.37-2.77,1.81-1.06,.44-2.2,.67-3.42,.67s-2.38-.22-3.44-.67c-1.06-.45-1.99-1.05-2.77-1.81-.79-.76-1.4-1.66-1.85-2.69-.44-1.03-.67-2.14-.67-3.32Zm3.23,0c0,.8,.14,1.53,.43,2.21,.29,.68,.68,1.27,1.17,1.78,.49,.51,1.07,.9,1.74,1.18,.67,.28,1.39,.42,2.15,.42s1.48-.14,2.15-.42c.67-.28,1.25-.67,1.74-1.18,.49-.51,.88-1.1,1.16-1.78s.42-1.42,.42-2.21-.14-1.53-.42-2.21-.67-1.27-1.16-1.77c-.49-.5-1.07-.89-1.74-1.18-.67-.29-1.39-.43-2.15-.43s-1.48,.14-2.15,.43c-.67,.29-1.25,.68-1.74,1.18-.49,.5-.88,1.09-1.17,1.77-.29,.68-.43,1.42-.43,2.21Z"/><path class="cls-1" d="M338.24,82.32v-16.38h3.46l8.29,12.05-.02-12.05h2.93v16.38h-3.46l-8.28-12.05,.02,12.05h-2.93Z"/></g></svg>